grf
version=1
nRows=17
nColumns=37
inDegrees=no
endheader
time	ground_force_1_vx	ground_force_1_vy	ground_force_1_vz	ground_force_1_px	ground_force_1_py	ground_force_1_pz	ground_moment_1_mx	ground_moment_1_my	ground_moment_1_mz	ground_force_2_vx	ground_force_2_vy	ground_force_2_vz	ground_force_2_px	ground_force_2_py	ground_force_2_pz	ground_moment_2_mx	ground_moment_2_my	ground_moment_2_mz	ground_force_3_vx	ground_force_3_vy	ground_force_3_vz	ground_force_3_px	ground_force_3_py	ground_force_3_pz	ground_moment_3_mx	ground_moment_3_my	ground_moment_3_mz	ground_force_4_vx	ground_force_4_vy	ground_force_4_vz	ground_force_4_px	ground_force_4_py	ground_force_4_pz	ground_moment_4_mx	ground_moment_4_my	ground_moment_4_mz
      3.57000000	      0.00000000	     -0.00000000	      0.00000000	      0.00000000	      0.00000000	      0.00000000	      0.00000000	      0.00000000	      0.00000000	     -8.80671501	      3.13688207	   -346.33920288	   -267.23681947	  -1069.27993391	      0.00000000	      0.00000000	     -0.00000000	   7583.70426739	      6.53165542	     -4.25459204	   -368.54452515	   -269.32151277	   -758.21354626	      0.00000000	      0.00000000	     -0.00000000	  -6226.10948926	      0.00000000	     -0.00000000	      0.00000000	      0.00000000	      0.00000000	      0.00000000	      0.00000000	      0.00000000	      0.00000000
      3.58000000	      0.00000000	     -0.00000000	      0.00000000	      0.00000000	      0.00000000	      0.00000000	      0.00000000	      0.00000000	      0.00000000	     -9.00231457	      3.67022681	   -348.04312134	   -267.04355310	  -1069.93553215	      0.00000000	      0.00000000	      0.00000000	   7729.33211940	      5.79114829	     -4.27200845	   -368.22622681	   -268.97381478	   -758.27164352	      0.00000000	     -0.00000000	     -0.00000000	  -6079.99466774	      0.00000000	     -0.00000000	      0.00000000	      0.00000000	      0.00000000	      0.00000000	      0.00000000	      0.00000000	      0.00000000
      3.59000000	      0.00000000	     -0.00000000	      0.00000000	      0.00000000	      0.00000000	      0.00000000	      0.00000000	      0.00000000	      0.00000000	     -9.49688148	      3.22483158	   -347.62500000	   -268.10422004	  -1068.93140956	      0.00000000	      0.00000000	      0.00000000	   7572.26892155	      5.78296720	     -4.16681531	   -369.24334717	   -268.88879279	   -757.52365445	      0.00000000	      0.00000000	     -0.00000000	  -6092.68056904	      0.00000000	     -0.00000000	      0.00000000	      0.00000000	      0.00000000	      0.00000000	      0.00000000	      0.00000000	      0.00000000
      3.60000000	      0.00000000	     -0.00000000	      0.00000000	      0.00000000	      0.00000000	      0.00000000	      0.00000000	      0.00000000	      0.00000000	     -9.39940071	      3.28962708	   -346.91809082	   -267.87035394	  -1068.48811328	      0.00000000	      0.00000000	      0.00000000	   7871.88743156	      5.41135752	     -4.14314365	   -369.33935547	   -268.63830510	   -759.20976944	      0.00000000	      0.00000000	     -0.00000000	  -6027.91748998	      0.00000000	     -0.00000000	      0.00000000	      0.00000000	      0.00000000	      0.00000000	      0.00000000	      0.00000000	      0.00000000
      3.61000000	      0.00000000	     -0.00000000	      0.00000000	      0.00000000	      0.00000000	      0.00000000	      0.00000000	      0.00000000	      0.00000000	     -8.88062572	      2.72127676	   -349.38882446	   -267.74455673	  -1070.15802680	      0.00000000	      0.00000000	      0.00000000	   8013.56609132	      5.62144148	     -4.09476425	   -370.79901123	   -268.92854605	   -758.87821141	      0.00000000	     -0.00000000	     -0.00000000	  -6071.95572698	      0.00000000	     -0.00000000	      0.00000000	      0.00000000	      0.00000000	      0.00000000	      0.00000000	      0.00000000	      0.00000000
      3.62000000	      0.00000000	     -0.00000000	      0.00000000	      0.00000000	      0.00000000	      0.00000000	      0.00000000	      0.00000000	      0.00000000	     -9.47120380	      2.53597522	   -349.42944336	   -268.39682993	  -1069.39482192	      0.00000000	     -0.00000000	      0.00000000	   7680.40749282	      6.24293243	     -4.23944146	   -371.84649658	   -269.54847552	   -758.83869549	      0.00000000	      0.00000000	     -0.00000000	  -6202.09495169	      0.00000000	     -0.00000000	      0.00000000	      0.00000000	      0.00000000	      0.00000000	      0.00000000	      0.00000000	      0.00000000
      3.63000000	      0.00000000	     -0.00000000	      0.00000000	      0.00000000	      0.00000000	      0.00000000	      0.00000000	      0.00000000	      0.00000000	     -9.66931725	      2.69118786	   -348.67962646	   -268.41237880	  -1069.50536176	      0.00000000	      0.00000000	      0.00000000	   7793.58980170	      5.85491140	     -4.61796430	   -372.61129761	   -269.86477499	   -758.69690438	      0.00000000	     -0.00000000	     -0.00000000	  -6122.61342042	      0.00000000	     -0.00000000	      0.00000000	      0.00000000	      0.00000000	      0.00000000	      0.00000000	      0.00000000	      0.00000000
      3.64000000	      0.00000000	     -0.00000000	      0.00000000	      0.00000000	      0.00000000	      0.00000000	      0.00000000	      0.00000000	      0.00000000	     -9.80438232	      2.60231447	   -348.42938232	   -268.14456335	  -1070.37348456	      0.00000000	     -0.00000000	      0.00000000	   7726.54205883	      5.78053676	     -4.20808938	   -373.08538818	   -269.31944836	   -758.67850135	      0.00000000	      0.00000000	     -0.00000000	  -6158.24435823	      0.00000000	     -0.00000000	      0.00000000	      0.00000000	      0.00000000	      0.00000000	      0.00000000	      0.00000000	      0.00000000
      3.65000000	      0.00000000	     -0.00000000	      0.00000000	      0.00000000	      0.00000000	      0.00000000	      0.00000000	      0.00000000	      0.00000000	     -9.98721790	      1.69347763	   -347.47583008	   -268.41915854	  -1068.72895063	      0.00000000	      0.00000000	      0.00000000	   7601.23736267	      5.50525294	     -4.23944140	   -373.52371216	   -269.89334777	   -759.02847172	      0.00000000	      0.00000000	     -0.00000000	  -5947.70701597	      0.00000000	     -0.00000000	      0.00000000	      0.00000000	      0.00000000	      0.00000000	      0.00000000	      0.00000000	      0.00000000
      3.66000000	      0.00000000	     -0.00000000	      0.00000000	      0.00000000	      0.00000000	      0.00000000	      0.00000000	      0.00000000	      0.00000000	     -9.93338490	      1.62628770	   -348.18435669	   -268.99693785	  -1069.13928368	      0.00000000	      0.00000000	      0.00000000	   7794.55283027	      5.71741595	     -3.87733438	   -373.88885498	   -270.21797125	   -758.42615660	      0.00000000	      0.00000000	     -0.00000000	  -6110.76363301	      0.00000000	     -0.00000000	      0.00000000	      0.00000000	      0.00000000	      0.00000000	      0.00000000	      0.00000000	      0.00000000
      3.67000000	      0.00000000	     -0.00000000	      0.00000000	      0.00000000	      0.00000000	      0.00000000	      0.00000000	      0.00000000	      0.00000000	     -9.48384762	      1.26946664	   -348.19909668	   -268.87056482	  -1068.58282205	      0.00000000	      0.00000000	      0.00000000	   7951.59148231	      5.88184658	     -3.67875890	   -372.92929077	   -270.41411518	   -759.24126589	      0.00000000	      0.00000000	     -0.00000000	  -6156.42776799	      0.00000000	     -0.00000000	      0.00000000	      0.00000000	      0.00000000	      0.00000000	      0.00000000	      0.00000000	      0.00000000
      3.68000000	      0.00000000	     -0.00000000	      0.00000000	      0.00000000	      0.00000000	      0.00000000	      0.00000000	      0.00000000	      0.00000000	     -9.53349400	      1.34625459	   -350.81820679	   -269.40003902	  -1070.18624456	      0.00000000	      0.00000000	      0.00000000	   7832.23579358	      6.09945504	     -3.66988378	   -374.01309204	   -270.81597172	   -758.77762948	      0.00000000	      0.00000000	     -0.00000000	  -6103.81722023	      0.00000000	     -0.00000000	      0.00000000	      0.00000000	      0.00000000	      0.00000000	      0.00000000	      0.00000000	      0.00000000
      3.69000000	      0.00000000	     -0.00000000	      0.00000000	      0.00000000	      0.00000000	      0.00000000	      0.00000000	      0.00000000	      0.00000000	     -9.88344193	      1.49428606	   -349.40734863	   -269.16610122	  -1068.23633315	      0.00000000	      0.00000000	      0.00000000	   7868.48533626	      6.46662586	     -3.53286800	   -375.15573120	   -271.05305599	   -758.67452352	      0.00000000	      0.00000000	     -0.00000000	  -6111.69924775	      0.00000000	     -0.00000000	      0.00000000	      0.00000000	      0.00000000	      0.00000000	      0.00000000	      0.00000000	      0.00000000
      3.70000000	      0.00000000	     -0.00000000	      0.00000000	      0.00000000	      0.00000000	      0.00000000	      0.00000000	      0.00000000	      0.00000000	     -9.90236664	      1.39734006	   -351.69128418	   -269.38600894	  -1069.42621262	      0.00000000	      0.00000000	      0.00000000	   7807.12340309	      6.82344692	     -3.52352035	   -373.78527832	   -271.32924098	   -760.13707477	      0.00000000	      0.00000000	     -0.00000000	  -6078.33713804	      0.00000000	     -0.00000000	      0.00000000	      0.00000000	      0.00000000	      0.00000000	      0.00000000	      0.00000000	      0.00000000
      3.71000000	      0.00000000	     -0.00000000	      0.00000000	      0.00000000	      0.00000000	      0.00000000	      0.00000000	      0.00000000	      0.00000000	     -9.53503036	      0.94148487	   -353.02264404	   -270.12298539	  -1069.33322401	      0.00000000	     -0.00000000	      0.00000000	   7920.26275436	      7.35345141	     -3.60218685	   -374.52145386	   -271.70323986	   -760.22657726	      0.00000000	      0.00000000	     -0.00000000	  -6107.07195926	      0.00000000	     -0.00000000	      0.00000000	      0.00000000	      0.00000000	      0.00000000	      0.00000000	      0.00000000	      0.00000000
      3.72000000	      0.00000000	     -0.00000000	      0.00000000	      0.00000000	      0.00000000	      0.00000000	      0.00000000	      0.00000000	      0.00000000	     -9.23822594	      0.86170411	   -353.65106201	   -270.45888393	  -1068.82794955	      0.00000000	      0.00000000	      0.00000000	   7829.53588587	      7.90493175	     -3.09125969	   -374.79522705	   -271.72831553	   -759.39645187	      0.00000000	      0.00000000	     -0.00000000	  -6137.30803009	      0.00000000	     -0.00000000	      0.00000000	      0.00000000	      0.00000000	      0.00000000	      0.00000000	      0.00000000	      0.00000000
      3.73000000	      0.00000000	     -0.00000000	      0.00000000	      0.00000000	      0.00000000	      0.00000000	      0.00000000	      0.00000000	      0.00000000	     -8.65341949	      1.48606360	   -354.70983887	   -270.90923582	  -1068.91135677	      0.00000000	      0.00000000	      0.00000000	   7987.62267533	      8.42752429	     -3.11077549	   -376.15200806	   -272.07893908	   -757.48614839	      0.00000000	      0.00000000	     -0.00000000	  -6068.88805066	      0.00000000	     -0.00000000	      0.00000000	      0.00000000	      0.00000000	      0.00000000	      0.00000000	      0.00000000	      0.00000000
